solid reference_baseplate
  facet normal 0 0 1
    outer loop
      vertex -55 -27.5 0
      vertex 55 -27.5 0
      vertex 55 27.5 0
    endloop
  endfacet
  facet normal 0 0 1
    outer loop
      vertex -55 -27.5 0
      vertex 55 27.5 0
      vertex -55 27.5 0
    endloop
  endfacet
  facet normal 0 0 -1
    outer loop
      vertex -55 -27.5 -2.5
      vertex 55 27.5 -2.5
      vertex 55 -27.5 -2.5
    endloop
  endfacet
  facet normal 0 0 -1
    outer loop
      vertex -55 -27.5 -2.5
      vertex -55 27.5 -2.5
      vertex 55 27.5 -2.5
    endloop
  endfacet
endsolid reference_baseplate
